<?xml version="1.0" standalone="no"?>
<!DOCTYPE svg PUBLIC "-//W3C//DTD SVG 20010904//EN"
 "http://www.w3.org/TR/2001/REC-SVG-20010904/DTD/svg10.dtd">
<svg version="1.0" xmlns="http://www.w3.org/2000/svg"
 width="1200.000000pt" height="720.000000pt" viewBox="0 0 1200.000000 720.000000"
 preserveAspectRatio="xMidYMid meet">
<metadata>
Created by potrace 1.16, written by Peter Selinger 2001-2019
</metadata>
<g transform="translate(0.000000,720.000000) scale(0.100000,-0.100000)"
fill="#ffffff" stroke="none">
<path d="M4520 5313 c-66 -10 -157 -63 -241 -140 -27 -26 -58 -52 -68 -59 -58
-41 -319 -328 -382 -421 -18 -26 -44 -61 -57 -78 -38 -46 -116 -218 -151 -335
-18 -58 -39 -122 -47 -143 -12 -31 -14 -146 -14 -710 l1 -672 42 -32 c99 -74
112 -78 237 -78 160 0 189 11 273 98 38 40 90 108 117 152 64 107 226 425 279
550 120 281 270 589 323 662 21 29 38 55 38 59 0 24 190 219 247 254 40 25 59
49 87 110 57 127 41 228 -50 329 -63 69 -115 94 -195 93 l-57 -1 -7 66 c-9 86
-27 134 -72 195 -43 60 -89 82 -198 97 -42 6 -77 10 -78 10 -1 -1 -13 -4 -27
-6z"/>
</g>
</svg>
