<?xml version="1.0" standalone="no"?>
<!DOCTYPE svg PUBLIC "-//W3C//DTD SVG 20010904//EN"
 "http://www.w3.org/TR/2001/REC-SVG-20010904/DTD/svg10.dtd">
<svg version="1.0" xmlns="http://www.w3.org/2000/svg"
 width="1200.000000pt" height="720.000000pt" viewBox="0 0 1200.000000 720.000000"
 preserveAspectRatio="xMidYMid meet">
<metadata>
Created by potrace 1.16, written by Peter Selinger 2001-2019
</metadata>
<g transform="translate(0.000000,720.000000) scale(0.100000,-0.100000)"
fill="#ffffff" stroke="none">
<path d="M4520 5313 c-66 -10 -157 -63 -241 -140 -27 -26 -58 -52 -68 -59 -58
-41 -319 -328 -382 -421 -18 -26 -44 -61 -57 -78 -38 -46 -116 -218 -151 -335
-18 -58 -39 -122 -47 -143 -12 -31 -14 -146 -14 -710 l1 -672 42 -32 c86 -64
115 -76 197 -81 l78 -4 -10 -37 c-6 -20 -14 -40 -18 -46 -4 -5 -10 -39 -14
-75 -3 -36 -9 -82 -12 -103 -12 -76 52 -209 125 -257 63 -43 152 -81 200 -87
56 -6 164 19 203 47 31 23 41 25 35 8 -8 -24 20 -105 61 -174 55 -94 85 -129
129 -148 21 -9 46 -22 57 -27 10 -6 42 -13 71 -16 44 -5 71 0 150 28 88 30
105 41 171 103 41 37 99 105 129 150 30 44 61 90 69 101 8 11 31 46 53 79 21
32 50 77 65 100 32 47 58 96 157 291 40 76 78 146 86 155 8 9 15 21 15 26 0 5
24 45 52 89 29 44 68 108 88 142 73 128 104 179 118 196 8 9 12 17 8 17 -8 0
30 59 49 75 6 6 22 28 36 50 13 22 74 112 134 199 61 87 128 184 150 216 22
32 51 71 65 87 13 15 52 59 85 98 56 66 222 235 292 299 l32 28 47 -16 c59
-20 163 -21 210 -1 47 19 134 98 157 141 64 123 81 283 38 364 -45 84 -125
181 -171 204 -51 27 -154 40 -201 27 -24 -7 -70 -18 -101 -25 -57 -12 -204
-102 -302 -183 -22 -18 -42 -33 -46 -33 -3 0 -14 25 -24 56 -21 66 -72 121
-145 159 -45 22 -62 25 -165 25 -105 0 -121 -3 -193 -31 -90 -36 -195 -93
-214 -115 -7 -9 -22 -20 -34 -25 -11 -5 -30 -16 -43 -25 -22 -16 -23 -16 -29
5 -3 12 -20 53 -38 90 -25 52 -44 76 -77 99 -77 53 -114 63 -228 64 -88 1
-116 -3 -177 -25 l-71 -25 -7 51 c-16 115 -78 216 -151 247 -34 15 -189 45
-197 39 -1 -1 -13 -4 -27 -6z"/>
</g>
</svg>
