<?xml version="1.0" standalone="no"?>
<!DOCTYPE svg PUBLIC "-//W3C//DTD SVG 20010904//EN"
 "http://www.w3.org/TR/2001/REC-SVG-20010904/DTD/svg10.dtd">
<svg version="1.0" xmlns="http://www.w3.org/2000/svg"
 width="2400.000000pt" height="1440.000000pt" viewBox="0 0 2400.000000 1440.000000"
 preserveAspectRatio="xMidYMid meet">
<metadata>
Created by potrace 1.16, written by Peter Selinger 2001-2019
</metadata>
<g transform="translate(0.000000,1440.000000) scale(0.100000,-0.100000)"
fill="#ffffff" stroke="none">
<path d="M4520 5313 c-66 -10 -157 -63 -241 -140 -27 -26 -58 -52 -68 -59 -58
-41 -319 -328 -382 -421 -18 -26 -44 -61 -57 -78 -38 -46 -116 -218 -151 -335
-18 -58 -39 -122 -47 -143 -12 -31 -14 -146 -14 -710 l1 -672 42 -32 c99 -74
112 -78 237 -78 160 0 189 11 273 98 81 85 145 190 286 469 l103 206 53 -28
c88 -47 170 -47 286 -2 31 12 104 85 122 121 7 14 28 52 46 84 42 75 92 170
152 287 27 52 73 136 103 185 85 140 146 247 146 255 0 4 14 37 30 73 17 35
33 75 35 87 2 13 11 44 19 69 28 89 29 126 5 203 -35 116 -73 183 -122 216
-76 53 -113 63 -227 64 -88 1 -116 -3 -177 -25 l-71 -25 -7 51 c-16 115 -78
216 -151 247 -34 15 -189 45 -197 39 -1 -1 -13 -4 -27 -6z"/>
</g>
</svg>
