<?xml version="1.0" standalone="no"?>
<!DOCTYPE svg PUBLIC "-//W3C//DTD SVG 20010904//EN"
 "http://www.w3.org/TR/2001/REC-SVG-20010904/DTD/svg10.dtd">
<svg version="1.0" xmlns="http://www.w3.org/2000/svg"
 width="1200.000000pt" height="720.000000pt" viewBox="0 0 1200.000000 720.000000"
 preserveAspectRatio="xMidYMid meet">
<metadata>
Created by potrace 1.16, written by Peter Selinger 2001-2019
</metadata>
<g transform="translate(0.000000,720.000000) scale(0.100000,-0.100000)"
fill="#ffffff" stroke="none">
<path d="M4520 5313 c-66 -10 -157 -63 -241 -140 -27 -26 -58 -52 -68 -59 -58
-41 -319 -328 -382 -421 -18 -26 -44 -61 -57 -78 -38 -46 -116 -218 -151 -335
-18 -58 -39 -122 -47 -143 -12 -31 -14 -146 -14 -710 l1 -672 42 -32 c86 -64
115 -76 197 -81 l78 -4 -10 -37 c-6 -20 -14 -40 -18 -46 -4 -5 -10 -39 -14
-75 -3 -36 -9 -82 -12 -103 -12 -76 52 -209 125 -257 63 -43 152 -81 200 -87
56 -6 164 19 203 47 31 23 41 25 35 8 -8 -24 20 -105 61 -174 55 -94 85 -129
129 -148 21 -9 46 -22 57 -27 10 -6 42 -13 71 -16 44 -5 71 0 150 28 88 30
105 41 171 103 41 37 98 105 128 150 30 45 61 88 70 95 14 12 16 9 16 -30 0
-80 28 -154 80 -208 55 -58 103 -84 214 -117 93 -29 141 -26 221 10 77 35 181
133 296 279 l35 45 27 -96 c15 -52 38 -112 52 -132 30 -43 117 -106 166 -120
102 -30 251 3 389 85 17 11 86 87 114 127 l16 22 37 -38 c21 -22 67 -53 103
-70 53 -25 77 -31 130 -30 136 2 255 88 303 219 35 95 89 217 117 264 16 29
30 55 30 59 0 8 13 33 54 107 16 28 47 84 69 125 22 41 47 86 56 100 9 13 36
61 61 106 85 154 160 280 179 300 10 12 37 54 60 95 24 41 55 94 71 119 49 77
145 260 189 359 40 89 44 125 26 220 -38 201 -142 304 -322 320 l-63 6 14 26
c7 15 24 60 37 100 60 185 9 340 -137 423 -64 36 -163 61 -234 60 -57 -1 -77
-7 -155 -48 -49 -25 -121 -71 -160 -101 -38 -30 -82 -63 -96 -74 l-26 -20 -6
53 c-8 77 -53 159 -136 249 -45 49 -70 61 -152 77 -53 10 -75 11 -110 1 -24
-7 -70 -18 -101 -25 -57 -12 -204 -102 -302 -183 -22 -18 -42 -33 -46 -33 -3
0 -14 25 -24 56 -21 66 -72 121 -145 159 -45 22 -62 25 -165 25 -105 0 -121
-3 -193 -31 -90 -36 -195 -93 -214 -115 -7 -9 -22 -20 -34 -25 -11 -5 -30 -16
-43 -25 -22 -16 -23 -16 -29 5 -3 12 -20 53 -38 90 -25 52 -44 76 -77 99 -77
53 -114 63 -228 64 -88 1 -116 -3 -177 -25 l-71 -25 -7 51 c-16 115 -78 216
-151 247 -34 15 -189 45 -197 39 -1 -1 -13 -4 -27 -6z"/>
</g>
</svg>
