<?xml version="1.0" standalone="no"?>
<!DOCTYPE svg PUBLIC "-//W3C//DTD SVG 20010904//EN"
 "http://www.w3.org/TR/2001/REC-SVG-20010904/DTD/svg10.dtd">
<svg version="1.0" xmlns="http://www.w3.org/2000/svg"
 width="1200.000000pt" height="720.000000pt" viewBox="0 0 1200.000000 720.000000"
 preserveAspectRatio="xMidYMid meet">
<metadata>
Created by potrace 1.16, written by Peter Selinger 2001-2019
</metadata>
<g transform="translate(0.000000,720.000000) scale(0.100000,-0.100000)"
fill="#ffffff" stroke="none">
<path d="M4520 5313 c-66 -10 -157 -63 -241 -140 -27 -26 -58 -52 -68 -59 -58
-41 -319 -328 -382 -421 -18 -26 -44 -61 -57 -78 -38 -46 -116 -218 -151 -335
-18 -58 -39 -122 -47 -143 -12 -31 -14 -146 -14 -710 l1 -672 42 -32 c86 -64
115 -76 197 -81 l78 -4 -10 -37 c-6 -20 -14 -40 -18 -46 -4 -5 -10 -39 -14
-75 -3 -36 -9 -82 -12 -103 -12 -76 52 -209 125 -257 90 -61 153 -84 226 -84
102 -1 161 23 226 90 30 31 64 66 77 77 12 11 22 25 22 30 0 5 13 27 28 50 70
104 101 155 116 191 9 22 28 55 42 73 13 18 49 79 78 135 75 144 165 308 186
338 9 14 27 43 39 65 11 22 31 56 43 77 49 79 88 148 88 156 0 5 8 20 19 33
10 13 44 68 75 123 31 54 63 104 70 111 7 7 28 37 46 67 160 255 213 321 431
539 94 94 224 186 308 218 104 39 164 135 169 271 3 84 2 86 -37 147 -27 42
-58 74 -95 98 -48 32 -64 37 -133 42 -71 5 -85 2 -158 -27 -93 -37 -197 -94
-216 -116 -7 -9 -22 -20 -34 -25 -11 -5 -30 -16 -43 -25 -22 -16 -23 -16 -29
5 -3 12 -20 53 -38 90 -25 52 -44 76 -77 99 -77 53 -114 63 -228 64 -88 1
-116 -3 -177 -25 l-71 -25 -7 51 c-16 115 -78 216 -151 247 -34 15 -189 45
-197 39 -1 -1 -13 -4 -27 -6z"/>
</g>
</svg>
