<?xml version="1.0" standalone="no"?>
<!DOCTYPE svg PUBLIC "-//W3C//DTD SVG 20010904//EN"
 "http://www.w3.org/TR/2001/REC-SVG-20010904/DTD/svg10.dtd">
<svg version="1.0" xmlns="http://www.w3.org/2000/svg"
 width="1200.000000pt" height="720.000000pt" viewBox="0 0 1200.000000 720.000000"
 preserveAspectRatio="xMidYMid meet">
<metadata>
Created by potrace 1.16, written by Peter Selinger 2001-2019
</metadata>
<g transform="translate(0.000000,720.000000) scale(0.100000,-0.100000)"
fill="#ffffff" stroke="none">
<path d="M4520 5313 c-66 -10 -157 -63 -241 -140 -27 -26 -58 -52 -68 -59 -58
-41 -319 -328 -382 -421 -18 -26 -44 -61 -57 -78 -38 -46 -116 -218 -151 -335
-18 -58 -39 -122 -47 -143 -12 -31 -14 -146 -14 -710 l1 -672 42 -32 c86 -64
115 -76 197 -81 l78 -4 -10 -37 c-6 -20 -14 -40 -18 -46 -4 -5 -10 -39 -14
-75 -3 -36 -9 -82 -12 -103 -12 -76 52 -209 125 -257 90 -61 153 -84 226 -84
102 -1 161 23 226 90 30 31 64 66 77 77 12 11 22 25 22 30 0 5 13 27 28 50 72
107 102 154 112 182 6 17 30 58 52 93 l41 63 31 -30 c82 -78 206 -102 321 -61
64 22 138 88 171 152 19 36 108 177 124 196 6 7 27 42 46 79 31 58 105 177
165 265 10 15 83 122 161 239 79 117 164 244 191 283 26 39 53 78 60 86 17 21
77 119 77 127 0 3 16 30 36 60 19 29 47 79 61 111 15 31 39 77 54 102 15 25
42 79 59 120 17 41 40 94 51 118 37 83 36 137 -6 262 -42 127 -75 169 -164
215 -45 22 -62 25 -165 25 -105 0 -121 -3 -193 -31 -90 -36 -195 -93 -214
-115 -7 -9 -22 -20 -34 -25 -11 -5 -30 -16 -43 -25 -22 -16 -23 -16 -29 5 -3
12 -20 53 -38 90 -25 52 -44 76 -77 99 -77 53 -114 63 -228 64 -88 1 -116 -3
-177 -25 l-71 -25 -7 51 c-16 115 -78 216 -151 247 -34 15 -189 45 -197 39 -1
-1 -13 -4 -27 -6z"/>
</g>
</svg>
