<?xml version="1.0" standalone="no"?>
<!DOCTYPE svg PUBLIC "-//W3C//DTD SVG 20010904//EN"
 "http://www.w3.org/TR/2001/REC-SVG-20010904/DTD/svg10.dtd">
<svg version="1.0" xmlns="http://www.w3.org/2000/svg"
 width="1200.000000pt" height="720.000000pt" viewBox="0 0 1200.000000 720.000000"
 preserveAspectRatio="xMidYMid meet">
<metadata>
Created by potrace 1.16, written by Peter Selinger 2001-2019
</metadata>
<g transform="translate(0.000000,720.000000) scale(0.100000,-0.100000)"
fill="#ffffff" stroke="none">
<path d="M4520 5313 c-66 -10 -157 -63 -241 -140 -27 -26 -58 -52 -68 -59 -58
-41 -319 -328 -382 -421 -18 -26 -44 -61 -57 -78 -38 -46 -116 -218 -151 -335
-18 -58 -39 -122 -47 -143 -12 -31 -14 -146 -14 -710 l1 -672 42 -32 c92 -68
117 -78 197 -77 83 0 141 20 198 69 89 75 139 240 95 312 -7 12 -13 43 -13 68
0 46 33 212 49 243 4 9 38 78 75 152 37 74 100 196 141 270 41 74 84 155 96
180 43 95 139 282 227 441 51 91 99 187 108 215 9 27 29 78 45 113 16 35 41
107 55 160 37 143 22 241 -53 343 -43 60 -89 82 -198 97 -42 6 -77 10 -78 10
-1 -1 -13 -4 -27 -6z"/>
</g>
</svg>
