<?xml version="1.0" standalone="no"?>
<!DOCTYPE svg PUBLIC "-//W3C//DTD SVG 20010904//EN"
 "http://www.w3.org/TR/2001/REC-SVG-20010904/DTD/svg10.dtd">
<svg version="1.0" xmlns="http://www.w3.org/2000/svg"
 width="1200.000000pt" height="720.000000pt" viewBox="0 0 1200.000000 720.000000"
 preserveAspectRatio="xMidYMid meet">
<metadata>
Created by potrace 1.16, written by Peter Selinger 2001-2019
</metadata>
<g transform="translate(0.000000,720.000000) scale(0.100000,-0.100000)"
fill="#ffffff" stroke="none">
<path d="M4520 5313 c-63 -10 -153 -61 -225 -128 -22 -20 -55 -49 -73 -63 -81
-62 -325 -329 -393 -429 -18 -26 -44 -61 -57 -78 -38 -46 -116 -218 -151 -335
-18 -58 -39 -122 -47 -143 -11 -30 -14 -113 -14 -450 l0 -412 58 62 c74 79
164 202 204 278 17 33 39 71 48 85 20 29 73 130 76 145 1 6 15 39 31 75 17 36
40 99 53 140 45 150 100 246 216 380 37 42 42 45 52 29 6 -9 41 -32 77 -50 74
-36 159 -44 226 -21 59 20 143 108 168 175 11 32 21 61 21 66 0 4 14 35 30 70
17 34 42 106 56 159 37 144 22 242 -53 344 -43 60 -89 82 -198 97 -42 6 -77
10 -78 10 -1 -1 -13 -4 -27 -6z"/>
</g>
</svg>
