<?xml version="1.0" encoding="UTF-8" standalone="no"?>
<!-- Created with Inkscape (http://www.inkscape.org/) -->

<svg
   xmlns:dc="http://purl.org/dc/elements/1.1/"
   xmlns:cc="http://creativecommons.org/ns#"
   xmlns:rdf="http://www.w3.org/1999/02/22-rdf-syntax-ns#"
   xmlns:svg="http://www.w3.org/2000/svg"
   xmlns="http://www.w3.org/2000/svg"
   xmlns:sodipodi="http://sodipodi.sourceforge.net/DTD/sodipodi-0.dtd"
   xmlns:inkscape="http://www.inkscape.org/namespaces/inkscape"
   id="svg2"
   version="1.1"
   inkscape:version="0.91 r13725"
   xml:space="preserve"
   width="800"
   height="159"
   viewBox="0 0 800 159"
   sodipodi:docname="Logo Clermont Ferrand.svg"><metadata
     id="metadata8"><rdf:RDF><cc:Work
         rdf:about=""><dc:format>image/svg+xml</dc:format><dc:type
           rdf:resource="http://purl.org/dc/dcmitype/StillImage" /><dc:title></dc:title></cc:Work></rdf:RDF></metadata><defs
     id="defs6" /><sodipodi:namedview
     pagecolor="#ffffff"
     bordercolor="#666666"
     borderopacity="1"
     objecttolerance="10"
     gridtolerance="10"
     guidetolerance="10"
     inkscape:pageopacity="0"
     inkscape:pageshadow="2"
     inkscape:window-width="1440"
     inkscape:window-height="790"
     id="namedview4"
     showgrid="false"
     inkscape:zoom="0.91868229"
     inkscape:cx="356.12015"
     inkscape:cy="102.40281"
     inkscape:window-x="0"
     inkscape:window-y="1"
     inkscape:window-maximized="1"
     inkscape:current-layer="g806" /><g
     id="g10"
     inkscape:groupmode="layer"
     inkscape:label="Couv_PDDM-Septembre2018-Web"
     transform="matrix(1.25,0,0,-1.25,0,159.00008)"><g
       id="g806"><g
         id="g5636"
         transform="matrix(12.864865,0,0,12.864865,-2092.4214,-284.41251)"><g
           id="g5613"><path
             inkscape:connector-curvature="0"
             id="path816"
             style="fill:#386fa7;fill-opacity:1;fill-rule:nonzero;stroke:none"
             d="m 181.384,27.3417 c -0.611,0 -1.136,0.241 -1.552,0.719 -0.34,0.395 -0.531,0.913 -0.531,1.485 0,0.59 0.22,1.114 0.647,1.545 0.398,0.4 0.888,0.607 1.471,0.607 0.45,0 0.83,-0.142 1.211,-0.437 l 0,0.354 0.583,0 0,-1.214 -0.808,0 c -0.236,0.3 -0.565,0.46 -0.969,0.46 -0.744,0 -1.286,-0.59 -1.286,-1.391 0,-0.749 0.565,-1.291 1.228,-1.291 0.393,0 0.716,0.153 0.935,0.442 l 0.975,0 c -0.398,-0.855 -1.021,-1.279 -1.904,-1.279" /><path
             inkscape:connector-curvature="0"
             id="path818"
             style="fill:#386fa7;fill-opacity:1;fill-rule:nonzero;stroke:none"
             d="m 186.0513,28.1314 0,0.619 0.715,0 0,-1.326 -3.034,0 0,0.707 0.438,0 0,2.782 -0.438,0 0,0.701 1.725,0 0,-0.701 -0.485,0 0,-2.782 1.079,0 z" /><path
             inkscape:connector-curvature="0"
             id="path820"
             style="fill:#386fa7;fill-opacity:1;fill-rule:nonzero;stroke:none"
             d="m 190.2969,28.7503 0,-1.326 -3.034,0 0,0.707 0.438,0 0,2.782 -0.438,0 0,0.702 3.034,0 0,-1.327 -0.715,0 0,0.625 -1.084,0 0,-1.002 1.084,0 0,-0.707 -1.084,0 0,-1.073 1.084,0 0,0.619 0.715,0 z" /><path
             inkscape:connector-curvature="0"
             id="path822"
             style="fill:#386fa7;fill-opacity:1;fill-rule:nonzero;stroke:none"
             d="m 192.5007,28.1314 0,-0.707 -1.65,0 0,0.707 0.439,0 0,2.782 -0.439,0 0,0.701 1.628,0 c 1.043,0 1.58,-0.471 1.58,-1.314 0,-0.649 -0.369,-1.126 -0.975,-1.25 l 0.583,-0.919 0.404,0 0,-0.707 -0.871,0 -1.103,1.945 0,-1.238 0.404,0 z m -0.231,1.444 c 0.652,0 0.993,0.248 0.993,0.707 0,0.454 -0.288,0.649 -0.871,0.649 l -0.295,0 0,-1.356 0.173,0 z" /><path
             inkscape:connector-curvature="0"
             id="path824"
             style="fill:#386fa7;fill-opacity:1;fill-rule:nonzero;stroke:none"
             d="m 195.7379,28.1314 0.479,0 0,-0.707 -1.667,0 0,0.707 0.438,0 0,2.782 -0.438,0 0,0.701 1.546,0 0.997,-3.047 0.992,3.047 1.547,0 0,-0.701 -0.439,0 0,-2.782 0.439,0 0,-0.707 -1.667,0 0,0.707 0.479,0 0,2.535 -1.044,-3.242 -0.607,0 -1.055,3.218 0,-2.511 z" /><path
             inkscape:connector-curvature="0"
             id="path826"
             style="fill:#386fa7;fill-opacity:1;fill-rule:nonzero;stroke:none"
             d="m 200.6594,31.0783 c 0.404,0.407 0.905,0.613 1.488,0.613 0.548,0 1.067,-0.218 1.466,-0.619 0.409,-0.413 0.629,-0.955 0.629,-1.526 0,-0.601 -0.203,-1.138 -0.589,-1.545 -0.398,-0.424 -0.941,-0.654 -1.512,-0.654 -0.606,0 -1.126,0.224 -1.529,0.66 -0.387,0.419 -0.582,0.938 -0.582,1.556 0,0.584 0.219,1.109 0.629,1.515 m 0.207,-1.538 c 0,-0.336 0.122,-0.655 0.346,-0.908 0.254,-0.283 0.595,-0.442 0.929,-0.442 0.693,0 1.263,0.566 1.263,1.367 0,0.714 -0.565,1.291 -1.246,1.291 -0.726,0 -1.292,-0.566 -1.292,-1.308" /><path
             inkscape:connector-curvature="0"
             id="path828"
             style="fill:#386fa7;fill-opacity:1;fill-rule:nonzero;stroke:none"
             d="m 206.3697,28.1314 0,-0.707 -1.724,0 0,0.707 0.438,0 0,2.782 -0.438,0 0,0.701 1.211,0 1.696,-2.675 0,1.974 -0.449,0 0,0.701 1.724,0 0,-0.701 -0.485,0 0,-3.489 -0.749,0 -1.708,2.758 0,-2.051 0.484,0 z" /><path
             inkscape:connector-curvature="0"
             id="path830"
             style="fill:#386fa7;fill-opacity:1;fill-rule:nonzero;stroke:none"
             d="m 211.6601,28.1314 0,-0.707 -1.724,0 0,0.707 0.443,0 0,2.782 -0.594,0 0,-0.625 -0.599,0 0,1.326 3.208,0 0,-1.326 -0.607,0 0,0.625 -0.605,0 0,-2.782 0.478,0 z" /><path
             inkscape:connector-curvature="0"
             id="path832"
             style="fill:#386fa7;fill-opacity:1;fill-rule:nonzero;stroke:none"
             d="m 181.0493,23.0242 0,-0.707 -1.725,0 0,0.707 0.439,0 0,2.782 -0.439,0 0,0.701 3.035,0 0,-1.326 -0.716,0 0,0.625 -1.084,0 0,-1.002 1.084,0 0,-0.708 -1.084,0 0,-1.072 0.49,0 z" /><path
             inkscape:connector-curvature="0"
             id="path834"
             style="fill:#386fa7;fill-opacity:1;fill-rule:nonzero;stroke:none"
             d="m 185.7861,23.6426 0,-1.325 -3.035,0 0,0.707 0.439,0 0,2.782 -0.439,0 0,0.701 3.035,0 0,-1.327 -0.716,0 0,0.626 -1.084,0 0,-1.002 1.084,0 0,-0.708 -1.084,0 0,-1.072 1.084,0 0,0.618 0.716,0 z" /><path
             inkscape:connector-curvature="0"
             id="path836"
             style="fill:#386fa7;fill-opacity:1;fill-rule:nonzero;stroke:none"
             d="m 187.9898,23.0242 0,-0.707 -1.65,0 0,0.707 0.438,0 0,2.782 -0.438,0 0,0.701 1.627,0 c 1.044,0 1.58,-0.471 1.58,-1.314 0,-0.649 -0.369,-1.126 -0.974,-1.249 l 0.583,-0.92 0.403,0 0,-0.707 -0.872,0 -1.101,1.945 0,-1.238 0.404,0 z m -0.231,1.445 c 0.652,0 0.992,0.247 0.992,0.706 0,0.454 -0.289,0.649 -0.871,0.649 l -0.294,0 0,-1.355 0.173,0 z" /><path
             inkscape:connector-curvature="0"
             id="path838"
             style="fill:#386fa7;fill-opacity:1;fill-rule:nonzero;stroke:none"
             d="m 191.6882,23.0242 0,-0.707 -1.651,0 0,0.707 0.439,0 0,2.782 -0.439,0 0,0.701 1.628,0 c 1.044,0 1.58,-0.471 1.58,-1.314 0,-0.649 -0.369,-1.126 -0.975,-1.249 l 0.583,-0.92 0.403,0 0,-0.707 -0.87,0 -1.103,1.945 0,-1.238 0.405,0 z m -0.231,1.445 c 0.652,0 0.992,0.247 0.992,0.706 0,0.454 -0.289,0.649 -0.872,0.649 l -0.294,0 0,-1.355 0.174,0 z" /><path
             inkscape:connector-curvature="0"
             id="path840"
             style="fill:#386fa7;fill-opacity:1;fill-rule:nonzero;stroke:none"
             d="m 194.728,23.0129 0.41,0 0,-0.695 -1.72,0 0,0.695 0.479,0 1.073,2.794 -0.478,0 0,0.701 1.437,0 1.291,-3.495 0.485,0 0,-0.695 -1.725,0 0,0.695 0.416,0 -0.156,0.413 -1.367,0 -0.145,-0.413 z m 0.837,2.31 -0.445,-1.227 0.883,0 -0.438,1.227 z" /><path
             inkscape:connector-curvature="0"
             id="path842"
             style="fill:#386fa7;fill-opacity:1;fill-rule:nonzero;stroke:none"
             d="m 199.5276,23.0242 0,-0.707 -1.724,0 0,0.707 0.438,0 0,2.782 -0.438,0 0,0.701 1.211,0 1.696,-2.676 0,1.975 -0.451,0 0,0.701 1.726,0 0,-0.701 -0.485,0 0,-3.489 -0.75,0 -1.708,2.758 0,-2.051 0.485,0 z" /><path
             inkscape:connector-curvature="0"
             id="path844"
             style="fill:#386fa7;fill-opacity:1;fill-rule:nonzero;stroke:none"
             d="m 202.8162,25.8119 -0.438,0 0,0.696 1.806,0 c 0.645,0 1.095,-0.094 1.506,-0.501 0.385,-0.383 0.587,-0.932 0.587,-1.615 0,-0.76 -0.287,-1.374 -0.819,-1.762 -0.357,-0.266 -0.744,-0.312 -1.252,-0.312 l -1.828,0 0,0.706 0.438,0 0,2.788 z m 0.808,0 0,-2.788 0.536,0 c 0.878,0 1.292,0.443 1.292,1.373 0,0.926 -0.449,1.415 -1.303,1.415 l -0.525,0 z" /></g><g
           id="g5630"><path
             inkscape:connector-curvature="0"
             id="path846"
             style="fill:#d85936;fill-opacity:1;fill-rule:nonzero;stroke:none"
             d="m 176.352,30.3582 -0.107,0 0,1.516 -9.434,0 0,-0.74 -0.107,0 0,0.85 9.648,0 0,-1.626 z" /><path
             inkscape:connector-curvature="0"
             id="path848"
             style="fill:#d85936;fill-opacity:1;fill-rule:nonzero;stroke:none"
             d="m 176.352,22.1077 -9.648,0 0,0.944 0.107,0 0,-0.835 9.434,0 0,2.54 0.107,0 0,-2.649 z" /><path
             inkscape:connector-curvature="0"
             id="path850"
             style="fill:#386fa7;fill-opacity:1;fill-rule:nonzero;stroke:none"
             d="m 178.0702,28.9568 -0.082,0.083 0.082,-0.083 m 0.915,0.265 -0.239,-0.084 c 0.226,0.112 0.062,0.084 0.239,0.084 m -0.109,0.146 -0.055,-0.041 -0.013,0 0,0.041 0.068,0 z m 0.581,0.014 -0.117,-0.027 0.117,0.027 m 0.061,0.224 c -0.082,-0.042 -0.157,-0.112 -0.267,-0.098 l -0.197,-0.07 0,0.014 c 0.15,0.07 0.3,0.14 0.464,0.154 m 0.355,0 -0.013,0.049 0.041,-0.028 -0.028,-0.021 z m 0.089,0.035 0.089,0.021 -0.021,0.013 -0.068,-0.034 z m 0.191,0.056 -0.068,-0.014 0,0.028 0.095,0.027 -0.027,-0.041 z m -0.567,0.035 -0.04,-0.042 -0.056,0.034 0.096,0.008 m 0.608,0.006 0.096,0.021 -0.061,0.007 -0.014,0 -0.021,-0.028 z m 0.274,0.189 -0.158,-0.077 c -0.163,-0.105 -0.375,-0.084 -0.546,-0.167 l -0.041,0 0.116,0.076 c 0.096,0.077 0.239,0.049 0.341,0.112 0.103,0 0.185,0.056 0.288,0.056 m 0.854,0.286 -0.042,-0.021 -0.027,0 0.069,0.021 m -6.695,-1.033 -0.055,0.014 0,0.021 0.055,-0.035 m -6.995,-4.39 -0.157,-0.097 0.157,0.097 m 0.267,0.167 0.047,0.023 -0.027,-0.057 -0.02,0.034 z m -0.253,0.266 -0.048,-0.035 0.014,0.049 0.034,-0.014 m 1.591,0.091 -0.15,-0.077 0.15,0.077 m -1.311,0.049 -0.13,-0.056 0.13,0.056 m 2.315,0.321 -0.102,-0.036 0.048,0.056 0.054,-0.02 m 0.178,0.111 0.007,-0.021 -0.041,-0.021 0,0.042 0.034,0 z m -0.348,0.063 0.034,0.035 0.027,-0.035 -0.061,0 z m -1.455,0.035 -0.116,-0.063 0.089,0.07 0.027,-0.007 z m 1.707,0.091 -0.061,-0.064 -0.041,0.015 0.102,0.049 m -2.465,-1.208 c -0.281,-0.209 -0.574,-0.397 -0.841,-0.614 l -0.109,0.056 c 0.294,0.216 0.594,0.447 0.915,0.6 l 0.035,-0.042 m 6.981,4.858 -0.062,0.035 0.062,-0.035 m -2.008,0.635 -0.007,0.021 0.054,-0.007 0.021,-0.028 -0.068,0.014 z m -0.854,0.007 -0.117,-0.014 -0.013,0.014 0.13,0 m -1.114,0.021 -0.055,0.007 0.055,0.021 0,-0.028 z m 1.851,0 -0.116,0.049 0.116,-0.049 m -1.427,0.056 0,-0.021 -0.082,0.014 0.013,0.021 0.069,-0.014 m -7.378,0.076 -0.089,-0.055 -0.041,0.013 0.13,0.042 m 7.166,-0.042 -0.02,-0.041 -0.13,0.028 -0.014,0 0.007,0.041 0.157,-0.028 m -0.048,0.105 c 0.164,-0.042 0.314,0.056 0.458,-0.042 l -0.014,-0.035 c -0.232,0.021 -0.465,0.035 -0.683,0.091 0.061,-0.021 0.178,0.077 0.239,-0.014 m -4.434,0.063 0,-0.021 -0.102,0.014 0.102,0.007 m -1.359,0.021 -0.081,-0.021 0.081,0.021 m -0.191,-0.021 -0.048,-0.042 -0.068,0.007 0.048,0.063 0.068,-0.028 m 3.949,0.028 -0.089,-0.014 -0.007,0.021 0.096,-0.007 m 0.443,0.007 -0.006,-0.021 -0.028,0.007 0.034,0.014 m -0.129,-0.014 -0.014,-0.028 -0.055,0.007 0.021,0.042 0.048,-0.021 m -3.245,0.063 -0.048,-0.014 0,0.014 0.048,0 z m 4.276,-0.07 c 0.116,-0.007 0.219,-0.021 0.321,-0.049 -0.177,-0.014 -0.328,0.021 -0.519,0.021 -0.068,-0.084 -0.15,0.049 -0.246,0.007 l 0.287,0.077 0.157,-0.056 m -2.015,0.063 -0.069,-0.007 0.069,0.007 m -2.001,0.042 -0.055,-0.014 0.055,0.014 m 5.608,-0.056 -0.273,0.028 c 0.095,-0.014 0.184,-0.021 0.273,-0.028 m 3.313,0.007 0,-0.014 -0.089,0.049 0.089,-0.035 m -6.1,0.076 -0.007,-0.027 -0.027,0.014 0.034,0.013 m -0.055,0.014 -0.068,-0.083 c -0.096,-0.056 -0.096,0.091 -0.171,0.056 -0.082,-0.077 -0.212,-0.056 -0.314,-0.049 l 0,0.062 c 0.177,0.028 0.389,0.007 0.553,0.014 m -2.295,-0.007 -0.239,-0.048 -0.048,0.014 0.095,0.041 0.192,0.014 0,-0.021 z m 4.57,-0.02 0.007,-0.028 c -0.253,-0.028 -0.492,0.041 -0.745,0.069 0.212,0.015 0.458,-0.014 0.676,-0.021 l 0.062,-0.02 z m 3.579,-0.008 -0.013,0.043 0.061,-0.022 -0.048,-0.021 z m -7.603,0.112 c -0.075,-0.097 -0.218,-0.021 -0.314,-0.063 l -0.014,0.015 -0.054,-0.029 -0.014,0.014 c 0.116,0.063 0.267,0.077 0.396,0.077 l 0,-0.014 z m 7.487,-0.035 -0.082,0 0,0.028 0.082,-0.028 m -0.239,0.07 -0.068,0.007 0.068,-0.007 z m 1.032,-0.244 -0.034,-0.056 -0.089,0.07 c -0.164,0.021 -0.28,0.147 -0.458,0.14 -0.109,0.042 -0.219,0.097 -0.335,0.111 l -0.027,0.014 c 0.335,-0.042 0.649,-0.139 0.943,-0.279 m -4.946,0.342 -0.048,-0.028 -0.061,0.007 0.006,0.035 0.103,-0.014 z m -3.224,0.007 -0.062,-0.035 c -0.225,0.007 -0.389,-0.028 -0.608,-0.028 -0.123,-0.042 -0.252,-0.028 -0.382,-0.028 0.246,0.091 0.532,0.091 0.792,0.098 l 0.26,-0.007 m 0.239,0.028 -0.028,-0.042 -0.089,0.007 -0.006,0.014 0.123,0.021 m 3.19,-0.028 -0.082,-0.007 0.013,0.028 0.069,-0.021 m -0.417,0.021 0.007,-0.056 -0.096,-0.028 -0.027,0.042 c -0.068,0.021 -0.178,-0.112 -0.184,0.021 l -0.233,-0.049 -0.075,0.056 -0.191,0.021 c 0.273,0.007 0.533,0.007 0.799,-0.007 m -0.287,0.132 -0.055,-0.041 c -0.163,-0.028 -0.327,0.013 -0.492,-0.036 -0.061,0.042 -0.191,-0.02 -0.204,0.085 0.232,0.069 0.464,-0.021 0.696,0.006 l 0.055,-0.014 m -1.052,-8.179 -0.116,-0.014 0.048,0.021 0.068,-0.007 m 0.109,0 0.028,0.035 0.027,-0.035 -0.055,0 z m 1.1,0.16 -0.061,-0.055 c -0.287,-0.028 -0.567,-0.085 -0.861,-0.105 l -0.055,0.041 c 0.123,0.064 0.28,0.043 0.417,0.077 l 0.082,-0.013 c 0.103,0.076 0.253,0.049 0.369,0.083 l 0.109,-0.028 m 0.342,0.057 -0.184,-0.071 -0.042,0.035 0.055,0.042 0.171,-0.006 m 0.266,0.027 -0.136,-0.021 0.136,0.021 m -0.239,0.37 -0.143,-0.049 0.061,0.069 0.082,-0.02 m 0.13,0.028 -0.048,0 0,0.021 0.048,-0.021 m 0.082,0.028 0.055,0 -0.021,0.035 -0.013,0 -0.021,-0.035 z m 2.951,0.154 -0.143,-0.057 0.143,0.057 m 0.184,0.056 -0.102,-0.015 0.041,0.043 0.061,-0.028 m -2.438,0.139 -0.048,-0.028 -0.041,0.021 0.089,0.007 m 1.475,0.028 -0.061,-0.063 c -0.103,0.063 -0.151,-0.112 -0.246,-0.042 -0.089,-0.028 -0.171,-0.139 -0.287,-0.098 l -0.198,-0.056 c -0.191,0 -0.342,-0.118 -0.533,-0.118 -0.075,-0.042 -0.157,-0.056 -0.253,-0.049 0.096,0.09 0.26,0.021 0.362,0.112 0.199,-0.035 0.314,0.119 0.499,0.126 0.225,0.09 0.451,0.188 0.697,0.229 l 0.02,-0.041 z m -1.38,0.013 -0.054,0.015 0.054,0.028 0,-0.043 z m 2.671,0.105 -0.109,-0.062 0.109,0.062 m -2.049,0.014 -0.109,-0.062 -0.103,-0.008 0.13,0.07 0.082,0 m -0.355,0.022 -0.021,-0.022 -0.034,0.042 0.055,-0.02 m 2.678,0.083 -0.178,-0.063 0.143,0.098 0.035,-0.035 m -0.95,0.216 -0.123,-0.125 -0.164,-0.084 c -0.102,0.036 -0.15,-0.063 -0.232,-0.063 -0.055,0.099 -0.15,-0.049 -0.185,0.035 l 0.233,0.112 c 0.17,0.021 0.307,0.104 0.464,0.139 l 0.007,-0.014 z m 0.717,0.181 -0.095,-0.181 -0.219,-0.09 -0.02,0 c 0.013,0.084 0.163,0.027 0.109,0.132 -0.123,0.021 -0.226,-0.097 -0.355,-0.105 l -0.021,0 c 0.123,0.07 0.253,0.147 0.383,0.189 l 0.218,0.055 m 0.472,0.824 0.068,-0.028 -0.089,-0.104 -0.143,-0.042 0.013,-0.07 -0.116,-0.077 c 0.034,-0.097 -0.109,-0.097 -0.157,-0.181 -0.116,-0.07 -0.259,-0.083 -0.362,-0.188 l -0.191,-0.098 -0.185,-0.112 c -0.136,-0.049 -0.28,-0.091 -0.416,-0.154 l -0.062,0.015 c 0.069,0.041 0.192,0.021 0.198,0.118 0.089,0.021 0.13,0.112 0.232,0.097 0.007,0.106 0.137,0 0.151,0.106 0.102,-0.021 0.15,0.076 0.239,0.069 l 0.048,0.092 -0.144,-0.028 -0.184,-0.077 c 0.075,0.041 0.061,0.174 0.17,0.174 l 0.206,0.098 0.006,-0.071 -0.034,-0.096 0.062,-0.015 0.075,0.07 c 0.102,-0.014 0.177,0.098 0.286,0.105 l 0.021,0.112 -0.136,0.027 0.225,0.168 0,0.098 0.075,-0.043 0.089,0.12 0.109,0.006 -0.054,-0.091 m 3.483,3.022 0.028,-0.062 -0.021,-0.036 -0.02,0.063 0.013,0.035 z m -0.949,-2.714 0.061,0.021 -0.006,0.028 -0.014,0 -0.041,-0.049 z m 0.266,0.286 0.062,0.02 -0.014,0.029 -0.048,-0.049 z m -1.079,1.5 0.041,0.014 -0.014,0.028 -0.013,0 -0.014,-0.042 z m 0.601,0.167 -0.034,0 0,0.07 0.061,0.014 -0.027,-0.084 z m -2.275,-3.315 -0.054,-0.049 -0.062,0 0.116,0.049 m 0.117,0.007 0.047,0.036 -0.047,-0.036 m 0.792,1.117 c -0.109,-0.07 -0.185,-0.223 -0.328,-0.231 l -0.068,-0.069 c -0.205,-0.104 -0.396,-0.237 -0.608,-0.348 l -0.041,0.006 0.109,0.084 c 0.096,0.063 0.198,0.111 0.314,0.139 0.048,0.049 0.062,0.161 0.157,0.147 l 0.151,0.112 c 0.136,-0.007 0.184,0.16 0.314,0.16 m -1.216,0.028 -0.075,-0.062 -0.034,0 0.047,0.09 0.062,-0.028 m -0.123,0.091 -0.109,-0.134 -0.014,0 0.123,0.134 m 0.745,0.007 0.184,0.153 -0.184,-0.153 m 2.514,0.509 0.061,0.022 -0.014,0.027 -0.013,0 -0.034,-0.049 z m -0.281,-0.314 0.042,0 0.02,0.041 -0.062,-0.027 0,-0.014 z m -1.202,0.014 c -0.027,-0.097 -0.157,-0.16 -0.239,-0.23 l -0.048,-0.021 c 0.028,0.098 0.137,0.181 0.232,0.223 l 0.055,0.028 m -0.724,0.042 -0.048,-0.042 0.048,0.042 m -0.109,-0.021 c -0.082,-0.104 -0.219,-0.118 -0.28,-0.23 l 0.041,-0.014 -0.082,-0.07 -0.062,0.049 -0.102,-0.063 0.034,0.112 0.205,0.091 c -0.007,0.097 0.13,0.034 0.15,0.131 l 0.041,0.064 0.055,-0.07 m 1.885,0.126 c -0.123,-0.07 -0.178,-0.175 -0.28,-0.279 l -0.075,-0.028 c 0.041,-0.098 -0.075,-0.119 -0.116,-0.175 l -0.239,-0.132 c -0.137,-0.112 -0.287,-0.251 -0.444,-0.335 l -0.089,-0.049 c -0.068,0.112 0.109,0.097 0.157,0.167 l 0.137,0.118 0.239,0.182 0,0.042 c 0.082,0.091 0.232,0.126 0.239,0.251 l 0.102,0.043 c 0.034,0.104 0.15,0.188 0.226,0.278 l 0.184,0.126 -0.041,-0.209 m 0.198,-0.043 c -0.123,-0.195 -0.341,-0.306 -0.457,-0.495 -0.185,-0.083 -0.287,-0.272 -0.465,-0.363 l -0.246,-0.146 0,-0.028 0.082,-0.006 -0.048,-0.043 -0.171,-0.006 -0.033,-0.127 -0.028,-0.034 -0.027,0.097 -0.205,-0.035 0.055,0.084 c 0.17,0.098 0.348,0.181 0.505,0.329 l 0.253,0.09 c 0.164,0.146 0.341,0.259 0.505,0.433 l 0.069,0.111 c 0.109,0.139 0.259,0.216 0.348,0.363 l 0.068,0.049 c -0.014,-0.119 -0.143,-0.175 -0.205,-0.273 m -2.008,0.308 -0.075,-0.09 0.109,-0.028 -0.027,-0.056 -0.089,-0.042 -0.082,0.055 c -0.055,-0.083 -0.171,-0.111 -0.198,-0.209 -0.185,-0.015 -0.205,-0.251 -0.39,-0.272 l -0.054,0.007 0,0.035 c 0.13,0.035 0.184,0.181 0.321,0.209 l 0.198,0.139 0.253,0.267 0.034,-0.015 m -0.246,-0.056 -0.013,0.007 0.081,0.064 -0.068,-0.071 m 0.54,0.084 -0.055,0.021 0.075,0.049 -0.02,-0.07 m 2.083,0.098 0.021,0.055 -0.021,-0.055 m -2.227,0.021 -0.021,0.007 0.035,0.055 -0.014,-0.062 m -0.13,0.034 c -0.061,-0.091 -0.095,-0.042 -0.17,-0.091 l -0.007,0.036 0.143,0.09 -0.013,0.105 0.047,-0.14 m 0.123,0.091 -0.068,-0.056 -0.034,0.063 c 0.021,0.076 0.144,0.084 0.102,-0.007 m 0.424,0.098 -0.055,-0.098 c -0.034,-0.097 -0.15,-0.007 -0.15,-0.125 l -0.034,-0.036 -0.021,0.064 c 0.069,0.069 0.151,0.153 0.212,0.244 l 0.048,-0.049 m -0.362,0.021 0.041,0.07 -0.041,-0.07 m -0.069,0.041 -0.102,-0.041 0.034,0.056 0.068,0.021 0,-0.036 z m 2.18,0.021 -0.103,-0.174 c -0.02,-0.181 -0.211,-0.091 -0.28,-0.251 l -0.014,-0.013 -0.006,0.083 c 0.061,0.104 0.184,0.013 0.232,0.146 l 0.027,0.139 0.144,0.07 m -2.084,0.14 -0.047,-0.07 0.047,0.07 m -0.014,0.105 -0.027,-0.042 -0.034,0.028 0.028,0.077 0.033,-0.063 m -0.156,0.125 0.034,0.014 -0.014,0.022 -0.02,-0.036 z m 2.37,-0.083 0.048,0.104 -0.048,-0.104 m -1.592,0.132 -0.054,-0.097 -0.069,0.021 0.041,0.125 -0.027,0.042 0.109,0.042 c 0.055,-0.056 -0.116,-0.084 0,-0.133 m 0.191,0.328 0.035,0.007 -0.014,0.035 -0.021,-0.042 z m -0.758,0.084 -0.007,-0.168 c -0.048,-0.076 -0.068,-0.174 -0.048,-0.272 l -0.013,-0.007 -0.02,0.098 -0.083,-0.042 0.034,0.203 c 0,0.098 0.158,0.07 0.117,0.188 l 0.02,0 z m 0.096,-0.084 0.02,0.105 -0.02,-0.105 m 2.643,0.349 0.021,-0.041 0,-0.035 -0.021,0 0,0.076 z m -2.848,0.035 0.034,0.021 -0.013,0.028 -0.014,0 -0.007,-0.049 z m 1.455,-0.035 -0.034,0 0,0.07 0.061,0.014 -0.027,-0.084 z m -1.291,0.014 0.088,0.056 0,-0.146 -0.027,-0.042 -0.116,0.042 0,0.209 0.055,-0.119 m 2.671,0.112 0.02,-0.056 0,-0.035 -0.027,0.056 0.007,0.035 z m -2.944,0.063 -0.007,-0.021 -0.034,0.034 0.041,-0.013 m 0.368,-0.077 -0.013,0.098 0.013,-0.098 m 0.13,-0.063 0,0.21 0,-0.21 m 2.446,0.189 -0.035,-0.007 0,0.041 0.035,-0.034 m -0.041,0.202 -0.007,-0.084 -0.021,-0.007 -0.034,0.098 0.062,-0.007 m -3.389,0.091 -0.211,-0.084 -0.178,-0.049 -0.013,0.007 c 0.123,0.056 0.266,0.063 0.382,0.126 l 0.02,0 z m 0.335,0.111 -0.068,-0.042 -0.137,-0.042 0.205,0.084 m 0.492,0.126 -0.034,0.056 0.034,-0.056 z m -0.089,0.084 -0.013,0.069 0.013,-0.069 z m 2.48,-0.105 -0.096,0.23 c 0.048,-0.063 0.103,-0.132 0.096,-0.23 m -2.569,0.014 0.076,0.021 -0.041,-0.111 c -0.096,-0.042 -0.117,0.188 -0.185,0.02 l -0.164,0.189 0.048,0.007 0.116,-0.091 0.007,0.084 -0.068,0.126 c 0.102,-0.05 0.136,-0.168 0.211,-0.245 m -0.723,0.384 -0.158,0.056 0.158,-0.056 m 0.389,0.118 -0.041,-0.048 -0.055,0.077 0.096,-0.029 m -0.28,-0.083 -0.075,0.007 -0.034,0.056 0.047,0.041 0,0.042 0.062,-0.146 m -0.314,0.398 0.027,-0.105 0.075,-0.021 0.014,-0.049 0.04,0 -0.013,-0.049 -0.116,0.021 -0.048,0.063 -0.062,-0.112 0.103,-0.077 c -0.034,-0.027 -0.15,0.043 -0.157,-0.055 l -0.027,0.014 0.041,0.125 -0.014,0.021 0.075,0.133 -0.061,0.118 0.123,-0.027 m 0.792,-1.55 c 0,-0.133 0.007,-0.244 -0.02,-0.363 l 0.054,-0.02 -0.027,-0.106 -0.069,0.015 -0.02,-0.133 c 0.027,-0.098 -0.102,-0.126 -0.068,-0.223 l -0.034,-0.07 0.095,-0.021 0.062,0.125 c 0.034,-0.09 -0.103,-0.174 -0.076,-0.278 l -0.102,-0.168 c -0.014,-0.084 -0.13,-0.042 -0.123,-0.133 l -0.075,-0.07 -0.048,-0.083 -0.048,0.021 0.014,0.056 -0.096,-0.105 0.021,-0.119 -0.021,-0.035 -0.027,0.077 -0.062,-0.042 -0.04,-0.048 -0.144,-0.168 0.109,-0.007 c 0.055,0.007 0.021,0.188 0.089,0.077 l -0.075,-0.126 -0.191,-0.084 0.054,0.084 -0.123,-0.021 -0.048,-0.112 -0.245,-0.146 -0.096,-0.083 -0.102,-0.133 0.218,0.048 c -0.02,-0.084 -0.157,-0.056 -0.13,-0.153 l -0.075,-0.085 -0.122,-0.09 -0.089,-0.126 -0.199,-0.124 0.014,0.041 -0.157,-0.041 c -0.089,-0.084 -0.212,-0.112 -0.308,-0.182 l 0.219,0.027 c -0.027,-0.125 -0.198,-0.062 -0.259,-0.188 -0.171,-0.021 -0.294,-0.147 -0.465,-0.167 -0.143,-0.056 -0.28,-0.126 -0.444,-0.154 l 0.02,0.056 0.076,0.021 -0.076,0.007 -0.02,0 0.055,0.07 0.082,0.034 -0.021,0.022 -0.225,-0.105 c -0.11,-0.014 -0.198,-0.105 -0.301,-0.112 -0.273,-0.083 -0.526,-0.237 -0.806,-0.321 -0.184,-0.055 -0.362,-0.132 -0.54,-0.202 -0.232,-0.07 -0.471,-0.14 -0.703,-0.21 l -0.028,-0.041 c 0.192,0.007 0.39,0.098 0.595,0.083 l -0.048,-0.055 c -0.499,-0.112 -0.984,-0.266 -1.496,-0.343 -0.109,-0.041 -0.26,0.056 -0.321,-0.056 l 0.034,-0.055 c -0.068,-0.036 -0.212,0.034 -0.225,-0.064 l 0.212,-0.027 -0.062,-0.035 c -0.362,-0.035 -0.758,-0.007 -1.12,0.049 l -0.144,0.062 c -0.15,0.092 -0.403,0.092 -0.416,0.329 -0.041,0.125 -0.007,0.244 0.04,0.356 0.075,0.174 0.24,0.334 0.39,0.46 l 0.089,0.049 c 0.116,0.105 0.259,0.146 0.368,0.259 0.137,0.069 0.253,0.174 0.39,0.236 0.191,0.085 0.369,0.197 0.546,0.308 0.096,0.055 0.164,0.111 0.273,0.146 0.24,0.14 0.492,0.252 0.725,0.398 l 0.205,0.07 0.136,0.021 0,-0.021 c -0.095,-0.07 -0.198,-0.139 -0.3,-0.203 l 0.02,-0.048 0.226,0.069 c 0.095,0.071 0.198,0.112 0.286,0.174 0.151,0.071 0.322,0.12 0.465,0.218 l 0.116,0.062 c 0.198,0.084 0.376,0.224 0.594,0.272 0.055,0.111 0.199,0.028 0.247,0.141 0.163,0.055 0.3,0.166 0.478,0.187 l 0.054,0.07 0.15,0.049 c 0.144,0.062 0.281,0.126 0.424,0.182 l 0.027,0.104 c 0.075,0 0.164,0.105 0.219,0.007 l 0.246,0.07 0.013,0.097 c 0.117,0.029 0.226,0.078 0.328,0.126 0.123,0.042 0.24,0.112 0.369,0.112 l -0.15,-0.077 -0.048,-0.042 0.021,-0.021 c 0.294,0.098 0.58,0.203 0.867,0.328 l 0.034,0.056 -0.177,-0.014 0,0.014 c 0.109,0.063 0.225,0.098 0.341,0.14 l 0.028,0.041 c 0.218,0.049 0.437,0.119 0.642,0.203 l 0.075,-0.07 m -7.2,-4.76 0,-0.021 c -0.137,0.015 -0.253,-0.021 -0.376,-0.034 l -0.02,-0.035 0.041,-0.021 c -0.13,-0.008 -0.287,0 -0.417,0.034 l -0.014,0.084 0.041,0.035 c 0.246,-0.042 0.479,-0.042 0.745,-0.042 m 0.546,0.154 -0.102,-0.021 0.007,0.021 0.095,0 m 0.718,0.125 c -0.233,0.014 -0.396,-0.125 -0.629,-0.105 0.178,0.064 0.383,0.057 0.561,0.126 l 0.068,0 0,-0.021 z m -3.607,0.517 -0.034,0.035 0.034,-0.035 m 1.626,0.189 -0.048,-0.057 -0.034,0 0.082,0.057 m -1.442,0.049 -0.15,-0.147 0.15,0.147 m -0.205,-0.021 0.007,-0.12 -0.082,-0.006 -0.089,0.104 0.171,0.21 -0.007,-0.188 m 2.234,0.376 -0.013,-0.041 c -0.158,-0.091 -0.294,-0.231 -0.465,-0.28 -0.007,0.098 0.123,0.14 0.185,0.203 l 0.245,0.153 0.048,-0.035 m 4.406,0.021 0.014,-0.091 -0.205,-0.083 0.055,0.112 -0.034,0.055 0.17,0.007 m 0.554,0.181 0,-0.028 c -0.13,-0.047 -0.24,-0.174 -0.397,-0.131 l -0.157,0.02 0.151,0.09 0.088,-0.055 0.171,0.084 0.062,-0.021 0.082,0.041 m -6.763,0.057 -0.164,-0.132 -0.021,0.026 0.185,0.106 m 6.599,-0.008 -0.151,-0.083 0.151,0.083 m -4.215,0.098 -0.28,-0.181 c -0.068,0.034 -0.137,-0.14 -0.164,-0.028 0.034,0.098 0.157,0.049 0.191,0.147 0.096,0.006 0.164,0.069 0.253,0.097 l 0,-0.035 z m 5.703,-0.014 -0.033,-0.069 0.02,-0.015 c -0.096,0.07 -0.164,-0.056 -0.267,-0.049 l -0.211,-0.062 c 0.143,0.077 0.287,0.147 0.43,0.237 l 0.061,-0.042 z m -1.277,-0.007 -0.068,-0.035 0,-0.021 -0.041,0.035 0,0.028 0.191,0.119 -0.082,-0.126 m 0.383,0.245 -0.082,-0.106 -0.171,-0.006 0.007,0.021 0.177,0.111 0.069,-0.02 m -4.017,0.272 -0.088,-0.106 c -0.144,-0.09 -0.301,-0.152 -0.445,-0.25 l -0.15,-0.056 0.185,0.14 0.006,0.014 c 0.157,0.041 0.301,0.18 0.458,0.258 l 0.034,0 z m 4.441,0.007 -0.035,-0.092 -0.211,-0.104 -0.103,-0.091 -0.027,0 c -0.041,0.112 0.102,0.091 0.109,0.182 l 0.232,0.154 0.035,-0.049 m 1.926,1.256 -0.014,-0.021 -0.013,0 0,0.028 0.027,-0.007 m -0.56,0.245 -0.117,-0.168 -0.157,-0.189 -0.013,0 c 0.013,0.153 0.211,0.181 0.191,0.35 l 0.055,0.041 0.041,-0.034 m -4.748,0.076 -0.041,-0.042 -0.061,0.014 0.061,0.049 0.041,-0.021 m 2.937,0.188 c -0.102,-0.034 -0.198,-0.104 -0.314,-0.111 l 0,0.021 0.273,0.132 0.041,-0.042 m -2.104,0.154 -0.013,-0.056 c -0.219,-0.062 -0.431,-0.16 -0.656,-0.23 l -0.062,0 0.035,0.035 c 0.212,0.09 0.43,0.16 0.635,0.265 l 0.061,-0.014 m 4.01,0.607 -0.164,-0.111 c -0.15,-0.029 -0.287,-0.105 -0.43,-0.119 l 0.143,0.084 c 0.165,0.014 0.294,0.104 0.451,0.146 m -1.468,1.975 0,-0.014 c -0.117,0.014 -0.212,0.063 -0.308,0.119 l 0.007,0.021 c 0.116,0 0.198,-0.084 0.301,-0.126 m -10.021,0.363 c -0.444,-0.077 -0.889,-0.147 -1.312,-0.279 l -0.041,0.035 c 0.273,0.097 0.574,0.125 0.868,0.167 0.157,0.028 0.314,0.07 0.485,0.091 l 0,-0.014 z m 8.689,-0.09 0.225,-0.035 -0.041,-0.043 c -0.102,0.028 -0.219,0.049 -0.328,0.043 l 0.116,-0.084 c -0.136,-0.014 -0.259,0.069 -0.403,0.077 l -0.007,0.049 0.124,0.034 0.136,-0.055 -0.021,0.027 0.13,0.014 0.069,-0.027 m -0.451,0.055 -0.075,-0.014 0.013,-0.07 -0.088,0.022 0,0.027 0.054,0.063 0.096,-0.028 m -0.219,0.042 0.048,0 -0.034,0.028 -0.014,0 0,-0.028 z m -5.349,0.224 c -0.137,-0.063 -0.355,-0.014 -0.492,-0.014 0.165,0.014 0.322,-0.008 0.492,0.014 m 3.115,0 0,-0.028 -0.129,0.021 0.109,0.013 0.02,-0.006 m -1.755,0.034 c -0.116,-0.056 -0.314,0.014 -0.478,-0.021 -0.233,-0.048 -0.52,0.021 -0.765,-0.027 0.355,0.055 0.758,0.055 1.134,0.062 l 0.109,-0.014 z m 1.557,0 -0.027,-0.041 c -0.267,0.013 -0.574,0.013 -0.84,0.035 0.252,0.027 0.532,-0.015 0.772,0.02 l 0.095,-0.014 m 13.43,0.335 -0.123,-0.111 -0.205,0.027 0.027,-0.048 -0.143,-0.035 0.034,0.049 -0.034,0.048 c 0.096,0.084 0.212,0.043 0.321,0.091 l 0.123,-0.021 m 0.082,0.056 0,-0.027 -0.048,0.027 0.014,0.021 0.034,-0.021 m 0.28,0.105 -0.123,-0.056 -0.109,-0.035 0.007,0.035 0.225,0.056 m -15.295,0.195 -0.061,-0.034 -0.068,0.027 0.129,0.007 m 5.595,0.049 -0.218,0.028 0.218,-0.028 m 1.421,-2.464 0.171,-0.09 0.061,-0.112 c -0.143,-0.063 -0.294,-0.118 -0.437,-0.14 l 0.075,0.084 -0.239,-0.049 c -0.171,-0.049 -0.321,-0.132 -0.492,-0.167 -0.355,-0.14 -0.731,-0.202 -1.086,-0.349 l -0.102,-0.063 0.198,0.021 0.266,0.063 c -0.157,-0.07 -0.321,-0.16 -0.512,-0.168 -0.219,-0.007 -0.355,-0.181 -0.574,-0.174 l 0.171,0.09 -0.007,0.022 c -0.342,-0.098 -0.669,-0.259 -1.011,-0.384 -0.096,-0.014 0,-0.098 -0.062,-0.14 -0.266,-0.132 -0.56,-0.195 -0.812,-0.363 l -0.779,-0.356 c -0.055,-0.098 -0.192,-0.041 -0.253,-0.139 -0.15,-0.034 -0.273,-0.139 -0.43,-0.161 l -0.041,0.063 c 0.136,0 0.239,0.126 0.368,0.168 0.049,0.125 0.205,0.056 0.26,0.16 0.137,0.035 0.246,0.14 0.383,0.168 l 0,0.021 c -0.096,-0.007 -0.171,-0.064 -0.26,-0.105 -0.219,-0.049 -0.403,-0.203 -0.615,-0.265 -0.491,-0.244 -1.004,-0.426 -1.475,-0.712 l -0.048,-0.112 -0.034,0.048 c -0.144,-0.048 -0.301,-0.146 -0.437,-0.229 l 0.02,-0.028 0.082,0.014 -0.075,-0.064 -0.082,0.036 -0.198,-0.112 -0.014,-0.105 -0.102,0.015 c -0.157,-0.084 -0.308,-0.176 -0.451,-0.287 l 0.006,-0.041 c 0.103,0.027 0.199,0.105 0.294,0.133 -0.198,-0.127 -0.389,-0.28 -0.587,-0.405 0,-0.098 -0.123,-0.105 -0.143,-0.175 l 0.116,-0.14 0.211,0.195 -0.068,0.056 0.144,0.119 0.116,-0.077 c 0.095,0.091 0.205,0.161 0.307,0.223 l 0.021,-0.013 c -0.362,-0.308 -0.724,-0.663 -0.991,-1.04 l 0,-0.028 0.048,-0.16 0.082,-0.113 c 0.137,-0.097 0.137,0.126 0.246,0.154 l -0.041,0.091 0.048,0.056 c -0.014,0.112 0.095,0.174 0.157,0.238 l 0.034,0.069 0.116,0.028 c -0.089,-0.14 -0.239,-0.251 -0.239,-0.405 l 0.007,-0.16 -0.103,-0.035 0,-0.049 c 0.103,-0.077 0.198,-0.147 0.294,-0.238 0.273,-0.139 0.506,-0.223 0.663,-0.237 0.765,-0.161 1.625,-0.112 2.418,-0.035 0.396,0.056 0.785,0.118 1.195,0.161 0.39,0.055 0.765,0.175 1.168,0.21 0.069,0.104 0.205,0 0.308,0.055 0.615,0.153 1.236,0.307 1.837,0.523 l 0.014,0.042 c -0.034,0.049 -0.164,-0.042 -0.164,0.071 0.28,0.173 0.574,0.271 0.861,0.424 0.157,-0.006 0.246,0.161 0.403,0.175 l 0.157,0.084 -0.027,0.049 c -0.13,-0.034 -0.24,-0.175 -0.376,-0.133 l -0.007,0.021 0.287,0.189 c 0.075,0.034 0.13,0.133 0.225,0.097 l 0.164,0.085 c 0.048,0.132 0.192,-0.021 0.219,0.103 l 0.014,-0.007 c -0.103,-0.103 -0.226,-0.201 -0.363,-0.229 l -0.054,-0.07 0.205,0.014 0.014,-0.042 c -0.172,-0.098 -0.335,-0.217 -0.52,-0.287 l -0.116,-0.09 c -0.109,0.021 -0.13,-0.119 -0.239,-0.105 -0.178,-0.147 -0.403,-0.175 -0.601,-0.286 l 0.027,-0.041 c 0.239,0.069 0.472,0.152 0.69,0.271 0.226,0.063 0.431,0.196 0.649,0.272 0.137,0.063 0.403,0.147 0.608,0.287 l 0.027,0.056 0.082,0.069 c 0.54,0.286 1.08,0.719 1.483,1.207 l 0.068,0.119 c 0.137,0.133 0.191,0.321 0.307,0.482 l 0.041,0.146 c 0.096,0.147 0.151,0.307 0.192,0.468 0.041,0.105 0.068,0.231 0.068,0.342 l -0.014,0 -0.082,-0.237 -0.027,0.035 0.041,0.118 -0.034,0.154 0.123,0.069 c 0,0.112 0.048,0.238 0,0.343 l -0.027,0.139 c -0.014,0.091 -0.035,0.181 -0.062,0.272 l -0.075,0.091 c 0.014,0.154 -0.116,0.251 -0.15,0.377 0.28,0.181 0.642,0.175 0.922,0.363 l 0.109,-0.035 0.116,0.091 0.089,0.049 -0.095,0.02 0.15,0.056 c 0.157,0.098 0.348,0.126 0.519,0.189 0.519,0.237 1.072,0.363 1.598,0.558 -0.109,0.035 -0.184,-0.056 -0.287,-0.049 l -0.02,0.028 c 0.212,0.098 0.478,0.07 0.683,0.175 0.061,0.097 0.137,0.055 0.226,0.076 l 0.122,0.063 0.171,0.035 0,0.126 -0.232,-0.007 -0.061,-0.105 -0.035,0.035 0.007,0.056 c -0.109,-0.007 -0.191,-0.07 -0.294,-0.091 -0.212,0.007 -0.361,-0.133 -0.567,-0.14 -0.163,-0.069 -0.341,-0.09 -0.498,-0.16 -0.322,-0.07 -0.629,-0.16 -0.936,-0.237 l -0.082,0.02 -0.089,-0.076 -0.109,0.014 -0.096,-0.091 c -0.129,-0.049 -0.348,-0.007 -0.376,-0.195 l -0.075,0.062 c -0.082,-0.006 -0.177,-0.006 -0.212,-0.097 l -0.252,-0.028 c -0.13,0.014 -0.192,-0.112 -0.314,-0.098 -0.158,-0.055 -0.308,-0.104 -0.472,-0.146 l -0.102,0.111 -0.759,0.552 c -0.218,0.111 -0.416,0.321 -0.655,0.335 l -0.383,0.167 c -0.444,0.16 -0.881,0.342 -1.345,0.433 l -0.192,0.048 c -0.198,0.063 -0.416,0.112 -0.628,0.126 l 0.034,-0.028 c 0.212,-0.049 0.416,-0.111 0.635,-0.146 l 0.021,-0.035 -0.799,0.126 c -0.472,0.083 -0.964,0.125 -1.449,0.174 -0.854,0.063 -1.632,0.049 -2.493,0.035 -0.246,-0.021 -0.478,-0.063 -0.731,-0.056 l -0.007,-0.049 0.157,-0.007 0.137,-0.069 -0.021,-0.042 c -0.122,-0.049 -0.17,0.09 -0.287,0.042 l -0.04,-0.022 -0.103,0.098 0.061,0.035 c -0.238,0.021 -0.471,-0.028 -0.696,-0.042 l 0.02,-0.104 0.13,0.027 c 0.123,0.021 0.246,-0.041 0.314,0.084 l 0.13,-0.014 c -0.027,-0.111 -0.171,0 -0.198,-0.09 l -0.136,-0.063 -0.137,-0.028 0.013,-0.021 c 0.376,0 0.759,0.069 1.121,0.028 l -0.082,-0.077 -0.041,-0.021 0.041,-0.083 0.171,-0.015 -0.028,-0.09 -0.082,0.041 c -0.123,0.056 -0.177,-0.097 -0.293,-0.02 l 0.02,0.069 0.089,0.028 -0.048,0.056 -0.096,0.077 -0.143,-0.028 c -0.014,-0.098 -0.15,-0.028 -0.225,-0.056 l -0.069,0.042 c -0.116,-0.028 -0.273,0.035 -0.348,-0.091 -0.294,0.042 -0.581,-0.063 -0.875,-0.035 l -0.041,-0.007 0.116,0.091 0.171,0.042 c 0.171,-0.056 0.308,0.049 0.472,0.035 l -0.034,0.042 c -0.123,-0.007 -0.24,0.028 -0.362,0 l -0.062,0.041 0.171,0.029 -0.034,0.055 -0.014,0.021 c -0.171,-0.007 -0.342,-0.021 -0.492,-0.062 -0.239,0 -0.464,-0.098 -0.676,-0.071 0.096,0.015 0.191,0.022 0.28,0.05 l 0.014,0.007 -0.137,0.007 -0.014,0.013 -0.225,-0.034 c -0.205,-0.021 -0.444,-0.021 -0.656,-0.056 -0.492,-0.084 -0.997,-0.126 -1.489,-0.203 -0.096,-0.013 -0.212,0.007 -0.294,-0.034 0.28,-0.015 0.554,0.048 0.813,0 0.089,0.034 0.171,0.069 0.273,0.069 0.158,0.098 0.383,0.042 0.561,0.091 l 0.061,0.035 c 0.219,0 0.471,0.063 0.717,0.035 l -0.253,-0.049 c -0.157,-0.07 -0.375,-0.014 -0.525,-0.125 -0.158,0.006 -0.287,-0.064 -0.451,-0.05 l -0.089,-0.028 c -0.171,0.028 -0.328,-0.062 -0.506,-0.048 l -0.109,-0.042 c 0,-0.105 0.082,-0.014 0.123,-0.049 l -0.041,-0.119 -0.205,0 c -0.068,0.042 -0.143,-0.084 -0.198,0.014 l 0.103,0.084 0.074,0.049 -0.204,-0.028 c -0.164,-0.021 -0.335,-0.056 -0.492,-0.098 -0.164,0.042 -0.246,-0.174 -0.41,-0.077 l -0.082,-0.062 -0.164,-0.042 -0.273,-0.021 -0.266,-0.056 0.04,-0.028 c 0.13,0.063 0.274,0.056 0.417,0.035 0.15,0.112 0.355,0.007 0.513,0.112 l 0.116,-0.035 0.211,-0.021 0,0.021 -0.041,0.021 0.014,0.035 0.253,0.048 0.095,0.007 -0.041,-0.062 c 0.219,-0.042 0.458,0.055 0.704,0.042 l 0.062,0.048 0.034,-0.042 0.109,0.042 0.253,0 0.068,0.063 0.178,0.021 -0.014,-0.056 0.212,0 0.17,0.056 0.26,-0.028 c 0.102,0.049 0.198,-0.042 0.314,-0.014 l 0.096,0.021 c 0.075,0.091 0.184,0.042 0.287,0.042 l 0.027,-0.07 0.287,0.021 0.028,0.042 0.088,0.028 0.027,-0.056 0.076,-0.021 0.047,0.077 0.281,0.014 0.095,-0.07 0.171,0.035 0.061,-0.014 0.349,-0.014 0.041,0.042 0.15,-0.042 c 0.492,0.014 0.984,0 1.469,-0.063 0.136,-0.014 0.287,-0.007 0.403,-0.069 l -0.198,-0.007 c -0.151,-0.014 -0.315,0.069 -0.451,-0.008 0.13,-0.055 0.287,-0.02 0.423,-0.062 0.096,-0.014 0.212,0.007 0.301,-0.014 0.478,-0.042 0.956,-0.154 1.441,-0.21 l 0,0.035 -0.136,0.063 0.116,0.105 0.184,0.021 0.034,-0.063 c 0.13,-0.007 0.24,-0.077 0.369,-0.063 l -0.034,0.063 0.144,-0.007 0.211,-0.098 0.137,-0.014 0.102,-0.028 0.089,-0.027 c 0.109,-0.084 0.253,-0.07 0.369,-0.147 l 0.075,0.021 -0.027,0.035 -0.205,0.077 c -0.123,0.062 -0.26,0.09 -0.396,0.125 l -0.096,0.028 -0.055,0.049 0.014,0.021 c 0.301,-0.084 0.601,-0.147 0.888,-0.273 l 0.15,-0.062 0.178,-0.042 0.089,0.035 -0.041,-0.035 0,-0.056 0.314,-0.139 c 0.062,-0.022 0.123,0.007 0.13,-0.084 0.171,-0.112 0.335,-0.223 0.498,-0.342 l 0.076,-0.035 -0.076,-0.063 c -0.163,0.112 -0.307,0.251 -0.491,0.328 l -0.103,-0.014 -0.191,0.168 -0.075,-0.042 -0.062,0.084 c -0.088,0.09 -0.095,-0.07 -0.184,-0.042 l -0.232,0.063 -0.028,0.041 -0.15,0.014 -0.253,0.154 -0.239,0 -0.082,0.035 0.109,-0.077 -0.122,-0.049 0,-0.014 0.15,-0.056 0.26,-0.076 -0.048,0.111 -0.089,0.007 0,0.028 0.089,0.014 0.041,-0.056 c 0.122,-0.035 0.246,-0.07 0.341,-0.146 l -0.13,-0.014 -0.109,0.014 c 0.096,-0.035 0.185,-0.063 0.28,-0.084 l 0.027,0.07 0.021,-0.084 0.266,-0.14 -0.041,0.091 0.144,-0.049 -0.034,-0.055 -0.014,-0.035 0.348,-0.161 0.574,-0.447 0.055,-0.076 -0.041,0.013 z" /><path
             inkscape:connector-curvature="0"
             id="path852"
             style="fill:#d85936;fill-opacity:1;fill-rule:nonzero;stroke:none"
             d="m 167.0449,26.1855 0.096,-0.014 -0.014,0.028 -0.014,0 -0.068,-0.014 z m 0.97,0 -0.082,-0.02 0.014,0.062 0.068,-0.042 m -1.94,-0.251 -0.137,-0.119 -0.02,0.063 0.157,0.056 m 0.457,-0.761 -0.068,-0.076 0.096,0.041 -0.028,0.035 z m 0.411,0.67 0.102,0.05 -0.102,-0.05 m 0.525,0.05 c -0.102,-0.085 -0.218,-0.147 -0.334,-0.203 l 0.02,-0.049 0.102,0.014 -0.225,-0.098 -0.007,0.071 -0.211,-0.064 -0.151,-0.021 c 0.171,0.154 0.376,0.224 0.567,0.335 l 0.157,0.035 0.082,-0.02 z m -0.15,0.397 -0.048,-0.042 -0.027,0.007 0.075,0.035 m 1.312,0.181 c -0.021,-0.098 -0.144,-0.111 -0.226,-0.139 l 0.151,0.111 0,0.056 0.075,-0.028 m 0.177,0.049 -0.089,-0.021 0,0.049 0.117,0.021 -0.028,-0.049 m -3.121,-1.423 -0.055,-0.098 -0.034,0.083 0.089,0.015 m 1.229,1.305 -0.608,-0.321 -0.129,-0.133 -0.049,0.035 0.035,0.167 c 0.082,0.092 0.205,0.07 0.287,0.168 0.143,0.063 0.28,0.16 0.437,0.209 l 0.027,-0.125 m 2.398,0.362 -0.102,-0.049 -0.014,0.035 0.116,0.014 m 0.171,0.064 -0.041,-0.021 0,0.035 0.041,-0.014 m -0.554,0.62 -0.075,-0.069 -0.055,0.007 0.089,0.07 0.041,-0.008 m 0.472,0.147 -0.082,-0.056 -0.021,0.056 0.103,0 m 0.095,0.007 -0.034,-0.021 -0.007,0.042 0.041,-0.021 m -2.111,-0.656 -0.034,-0.049 c -0.109,-0.034 -0.218,-0.084 -0.328,-0.126 l 0.007,0.042 c 0.11,0.056 0.219,0.133 0.335,0.168 l 0.02,-0.035 z m 1.148,0.768 -0.15,-0.056 0.15,0.056 m 5.287,0.523 0.021,0.042 0.041,-0.021 -0.062,-0.021 z m -4.16,-0.586 -0.116,-0.042 -0.013,0.07 0.095,0.007 0.034,-0.035 z m 0.116,0.084 0,-0.028 -0.034,0.042 0.034,-0.014 m 0.41,0.118 -0.034,-0.139 -0.014,-0.014 -0.061,0.105 0.027,0.076 0.082,-0.028 m 0.15,0.084 -0.013,-0.112 -0.055,0.014 0.068,0.098 m 0.212,0.028 -0.136,-0.028 0.034,0.07 0.102,-0.042 m 0.151,0.077 -0.049,-0.035 -0.027,0.014 0.076,0.021 m 0.491,0.146 -0.054,-0.097 -0.041,0.02 0.095,0.077 m -2.063,-0.258 -0.116,-0.056 c -0.102,-0.049 -0.232,-0.042 -0.334,-0.097 0.129,0.055 0.273,0.118 0.416,0.16 l 0.034,-0.007 m 1.394,0.461 0,-0.021 c -0.157,-0.014 -0.273,-0.126 -0.43,-0.126 -0.124,-0.077 -0.274,-0.098 -0.41,-0.139 -0.13,-0.028 -0.246,-0.084 -0.376,-0.112 0.287,0.153 0.622,0.223 0.936,0.328 0.095,0.014 0.178,0.084 0.28,0.07 m 7.398,1.612 -0.089,-0.042 0.041,0.063 0.048,-0.021 m -0.451,0.028 -0.021,-0.035 -0.047,0.021 0.02,0.014 0.048,0 m 1.578,0.14 -0.02,-0.043 -0.041,0.028 0.013,0.029 0.048,-0.014 m 0.779,0.027 -0.123,-0.013 0.123,0.013 m -0.294,0.119 -0.034,-0.042 -0.02,0.021 0.054,0.021 m 0.704,0.056 -0.035,0 0.021,0.09 0.014,-0.09 m -0.711,0.097 -0.075,-0.111 c -0.198,-0.021 -0.369,-0.119 -0.587,-0.105 -0.062,-0.049 -0.171,0.007 -0.205,-0.083 -0.144,-0.007 -0.273,-0.077 -0.417,-0.064 l -0.178,-0.007 c 0.096,0.007 0.076,0.112 0.178,0.098 l 0.26,0.084 0.047,-0.049 c 0.171,0.042 0.383,-0.028 0.499,0.119 l 0.137,0.007 -0.007,0.042 c 0.123,0.014 0.225,0.069 0.348,0.069 m 0.929,0.084 -0.13,-0.048 -0.075,0.041 -0.095,-0.028 -0.185,-0.049 -0.041,-0.111 -0.034,0.111 -0.082,0 0.041,0.063 0.062,-0.021 c 0.095,0.035 0.205,0.015 0.293,0.063 l 0.246,-0.021 m 0.342,0 -0.014,-0.042 -0.109,0.021 0.055,0.07 0.068,-0.049 m -6.633,-1.193 c -0.164,-0.042 -0.13,-0.014 -0.192,-0.049 -0.444,-0.105 -0.874,-0.238 -1.325,-0.335 -0.089,-0.028 -0.177,-0.077 -0.286,-0.063 -0.554,-0.174 -1.134,-0.293 -1.688,-0.46 l -0.014,-0.021 0.26,0.014 c 0.137,0.111 0.342,0.069 0.512,0.111 0.082,0.028 0.144,0.084 0.24,0.07 l 0.245,0.063 0.116,0.084 c 0.137,-0.105 0.294,0.035 0.452,0 l 0,-0.014 c -0.205,-0.084 -0.431,-0.126 -0.643,-0.189 -0.157,-0.063 -0.328,-0.077 -0.492,-0.139 -0.587,-0.189 -1.188,-0.335 -1.769,-0.565 -0.123,-0.084 -0.266,-0.043 -0.403,-0.098 l -0.15,-0.056 c -0.13,-0.07 -0.28,-0.077 -0.396,-0.175 -0.383,-0.167 -0.779,-0.293 -1.141,-0.495 l 0.013,-0.049 c 0.315,0.077 0.588,0.237 0.895,0.328 0.096,0.021 0.212,0.139 0.294,0.028 -0.007,-0.119 -0.096,0.007 -0.157,-0.042 l -0.137,-0.105 c -0.088,-0.077 -0.211,-0.07 -0.314,-0.139 -0.143,-0.036 -0.3,-0.077 -0.41,-0.189 -0.171,-0.013 -0.287,-0.161 -0.444,-0.195 -0.088,-0.077 -0.28,-0.034 -0.286,-0.203 0.081,-0.084 0.191,0.063 0.3,0.049 l 0.027,-0.077 c -0.225,-0.103 -0.45,-0.223 -0.676,-0.321 -0.075,-0.056 -0.178,-0.105 -0.143,-0.229 -0.219,-0.161 -0.451,-0.287 -0.676,-0.434 l -0.042,-0.14 c -0.123,-0.068 0.062,-0.153 0.021,-0.25 l 0.116,0.055 c 0.157,0.042 0.28,0.189 0.43,0.251 l 0.212,0.071 0.061,-0.092 c -0.102,-0.062 -0.197,-0.146 -0.307,-0.195 l -0.143,0 -0.041,-0.105 c -0.096,-0.083 -0.212,-0.124 -0.294,-0.223 l 0.02,-0.272 c 0.144,0.146 0.328,0.259 0.499,0.356 0.171,0.154 0.376,0.216 0.554,0.336 -0.041,0.103 -0.13,-0.049 -0.206,-0.015 0.069,0.126 0.233,0.098 0.328,0.188 0.192,-0.049 0.315,0.14 0.472,0.189 l -0.028,0.077 0.11,0.049 0.02,-0.056 0.041,0 c 0.075,0.153 0.253,0.069 0.335,0.195 0.082,0.084 0.314,0.042 0.253,0.21 l -0.219,-0.084 -0.109,0.035 -0.089,-0.049 -0.157,-0.022 -0.041,0.049 0.178,0.064 0.116,0.028 c 0.116,-0.112 0.211,0.083 0.348,0.055 l 0.041,-0.132 c 0.096,0.007 0.15,0.083 0.225,0.146 l -0.034,0.057 0.021,0.02 0.102,-0.014 -0.027,-0.063 0.246,0.105 0,0.014 -0.062,0.035 0.041,0.042 0.151,-0.008 0.095,0.008 c 0.144,0.118 0.328,0.132 0.478,0.223 l 0.082,0.126 0.103,-0.028 c 0.109,0.02 0.205,0.084 0.307,0.118 0.287,0.133 0.595,0.224 0.888,0.336 l -0.048,0.083 0.185,-0.028 c 0.294,0.091 0.553,0.286 0.867,0.328 l 0.185,0.035 -0.021,0.07 c 0.089,0.07 0.205,0.084 0.308,0.126 0.143,-0.035 0.246,0.076 0.375,0.091 0.274,0.083 0.526,0.188 0.806,0.237 0.158,0.062 0.335,0.083 0.492,0.139 l 0.158,0.063 -0.089,0.021 0,0.014 c 0.171,0.083 0.362,0.119 0.539,0.181 0.164,0.035 0.315,0.112 0.479,0.105 -0.103,-0.063 -0.226,-0.07 -0.328,-0.119 -0.151,-0.042 -0.314,-0.062 -0.444,-0.146 0.218,0.021 0.43,0.111 0.649,0.167 l 0.246,0.098 -0.335,0.3 -0.116,0.084 -0.103,0.091 -0.096,0.07 -0.068,0.034 -0.075,0.035 -0.068,0.035 -0.068,0.035 -0.069,0.035 -0.068,0.035 0,-0.014 z m 3.648,0.146 0.041,0.063 0.054,-0.035 0.212,0.028 -0.006,0.063 0.122,-0.021 0.034,0.049 -0.048,0.056 0.028,0.007 0.082,-0.063 0.082,0.035 0.225,0.049 0.136,0.035 0.192,0.063 0.226,0.048 c 0.061,0.098 0.163,0.056 0.245,0.049 0.014,0.119 0.137,-0.007 0.164,0.091 l 0.226,0.083 0.136,0.057 0.055,0.034 0.232,0.021 0.171,0.07 c 0.096,-0.035 0.157,0.07 0.253,0.056 0.123,0.042 0.266,0.035 0.355,0.125 0.116,0 0.246,0.029 0.362,0.057 l 0.171,0.069 c 0.13,-0.007 0.239,0.035 0.341,0.091 0.185,-0.014 0.301,0.188 0.478,0.146 0.144,-0.027 0.247,0.119 0.397,0.063 0.177,0.098 0.396,0.077 0.581,0.147 l -0.212,0.014 c -0.103,-0.098 -0.246,-0.021 -0.369,-0.063 -0.123,0.028 -0.192,-0.091 -0.301,-0.063 -0.143,-0.056 -0.321,0.028 -0.444,-0.07 -0.123,0.035 -0.239,-0.014 -0.355,-0.021 l -0.191,-0.034 c -0.13,0.007 -0.239,-0.063 -0.349,-0.084 l -0.218,0 0.143,0.069 c -0.423,-0.069 -0.84,-0.153 -1.27,-0.209 l -0.123,-0.028 c -0.39,-0.091 -0.786,-0.153 -1.182,-0.23 l -0.239,-0.063 c -0.342,-0.021 -0.629,-0.174 -0.97,-0.195 l -0.178,-0.077 0.711,-0.482" /></g></g></g></g></svg>